{"title":"Shark Lake 2015 WEB-DL","uid":12519173,"size":1347710243,"categoryP":"video","categoryS":"hd___movies","magnet":"?xt=urn:btih:c11d6fc015828c0b4b23f9df4580c9038908ee6a&amp;dn=Shark+Lake+2015+WEB-DL&amp;tr=udp%3A%2F%2Ftracker.leechers-paradise.org%3A6969&amp;tr=udp%3A%2F%2Fzer0day.ch%3A1337&amp;tr=udp%3A%2F%2Fopen.demonii.com%3A1337&amp;tr=udp%3A%2F%2Ftracker.coppersurfer.tk%3A6969&amp;tr=udp%3A%2F%2Fexodus.desync.com%3A6969","seeders":0,"leechers":1,"uploader":"Joker__TPB","files":4,"time":1443828909,"description":"===================================================================================\r\n\tFiercely protective single-mom Meredith Hendricks happens to also be the best cop in her quiet town on Lake Tahoe. When a black-market exotic species dealer named\r\nClint| is paroled from prison| something he let loose begins to make its presence known. Swimmers and land-lovers alike begin to become part of the food chain at an\r\nunbelievable rate. Meredith and the new man in her life| a biologist named Peter| begin to investigate these brutal attacks and discover that they're not just\r\nhunting one eating machine| but a whole family of them. After a documentary crew is devoured when they don't take the threat seriously| it's up to Meredith| Peter|\r\nand the unlikely hero| Clint| to stop the most dangerous thing on the planet: A mother protecting its young. Not everyone will make it out alive| but those who do\r\nwill never forget this summer at Shark Lake.\r\n===================================================================================\r\nVideo\r\nID                                       : 0\r\nFormat                                   : MPEG-4 Visual\r\nFormat profile                           :   \r\nFormat settings, BVOP                    : No\r\nFormat settings, QPel                    : No\r\nFormat settings, GMC                     : No warppoints\r\nFormat settings, Matrix                  : Default (H.263)\r\nCodec ID                                 : XVID\r\nCodec ID/Hint                            : XviD\r\nDuration                                 : 1h 32mn\r\nBit rate                                 : 1 546 Kbps\r\nWidth                                    : 720 pixels\r\nHeight                                   : 400 pixels\r\nDisplay aspect ratio                     : 16:9\r\nFrame rate                               : 23.976 fps\r\nColor space                              : YUV\r\nChroma subsampling                       : 4:2:0\r\nBit depth                                : 8 bits\r\nScan type                                : Progressive\r\nCompression mode                         : Lossy\r\nBits/(Pixel*Frame)                       : 0.224\r\nStream size                              : 1 024 MiB (80%)\r\nWriting library                          : Lavc56.13.100\r\n\r\nAudio\r\nID                                       : 1\r\nFormat                                   : AC-3\r\nFormat/Info                              : Audio Coding 3\r\nMode extension                           : CM (complete main)\r\nFormat settings, Endianness              : Big\r\nCodec ID                                 : 2000\r\nDuration                                 : 1h 32mn\r\nBit rate mode                            : Constant\r\nBit rate                                 : 384 Kbps\r\nChannel(s)                               : 6 channels\r\nChannel positions                        : Front: L C R, Side: L R, LFE\r\nSampling rate                            : 48.0 KHz\r\nCompression mode                         : Lossy\r\nStream size                              : 254 MiB (20%)\r\nAlignment                                : Aligned on interleaves\r\nInterleave, duration                     : 42 ms (1.00 video frame)\r\nInterleave, preload duration             : 512 ms\r\n===================================================================================","torrent":{"xt":"urn:btih:c11d6fc015828c0b4b23f9df4580c9038908ee6a","amp;dn":"Shark+Lake+2015+WEB-DL","amp;tr":["udp%3A%2F%2Ftracker.leechers-paradise.org%3A6969","udp%3A%2F%2Fzer0day.ch%3A1337","udp%3A%2F%2Fopen.demonii.com%3A1337","udp%3A%2F%2Ftracker.coppersurfer.tk%3A6969","udp%3A%2F%2Fexodus.desync.com%3A6969"],"infoHash":"c11d6fc015828c0b4b23f9df4580c9038908ee6a","infoHashBuffer":{"type":"Buffer","data":[193,29,111,192,21,130,140,11,75,35,249,223,69,128,201,3,137,8,238,106]},"announce":[],"urlList":[]}}